<svg xmlns="http://www.w3.org/2000/svg" viewBox="0 0 128 128" role="img" aria-label="Smoothe portfolio mark">
  <rect width="128" height="128" fill="#09090b"/>
  <path d="M18 18h92v92H18z" fill="none" stroke="#c8ff2e" stroke-width="6"/>
  <path d="M38 91V80c10 6 22 9 35 9 12 0 18-4 18-11 0-6-4-9-14-12l-17-5c-14-4-22-12-22-25 0-16 13-25 34-25 10 0 20 2 29 7v11c-9-6-19-9-30-9-11 0-17 4-17 11 0 6 4 9 13 12l18 5c15 4 23 12 23 25 0 16-14 25-36 25-13 0-24-2-34-7z" fill="#f4f4f5"/>
  <path d="M28 28h12v12H28z" fill="#58e1ff"/>
  <path d="M88 88h12v12H88z" fill="#c8ff2e"/>
</svg>
